<svg width="192" height="192" viewBox="0 0 192 192" fill="none" xmlns="http://www.w3.org/2000/svg">
<rect width="192" height="192" rx="48" fill="#FFF4F4"/>
<path d="M131.83 65.7708H123.048L93.0026 96.107V65.7708H84.858V96.0247L54.6961 65.7708H46.8937L45.1182 67.695L80.6772 103.361H97.2785L132.612 67.6842L131.83 65.7708Z" fill="#F4D77A"/>
<path d="M132.612 67.6835L97.2785 103.362H88.8652V65.7695H93.0027V96.1079L123.048 65.7695H131.83L132.612 67.6835Z" fill="#FFB966"/>
<path d="M89.0664 20.0398C91.0078 20.6316 88.9307 69.0275 114.301 69.0275H129.789C132.038 69.0275 133.861 67.2048 133.861 64.9563C133.861 40.2339 113.779 20.1136 89.0664 20.0398Z" fill="#DC146B"/>
<path d="M88.7949 20.0398C64.0825 20.1134 44 40.2339 44 64.9563C44 67.2048 45.8233 69.0275 48.0723 69.0275H63.5599C88.9307 69.0278 86.8535 20.6316 88.7949 20.0398Z" fill="#CD1565"/>
<path d="M89.0664 20.0397C89.0211 20.0397 88.976 20.0381 88.9307 20.0381V69.0277H114.301C113.672 28.4107 91.0078 20.6316 89.0664 20.0397Z" fill="#B92062"/>
<path d="M88.7946 20.0397C86.8532 20.6316 64.1886 28.4104 63.5596 69.0274H88.9303V20.0381C88.885 20.0381 88.8399 20.0397 88.7946 20.0397Z" fill="#A4074B"/>
<path d="M120.151 106.332V154.928C120.151 157.176 118.327 159 116.079 159H61.7822C59.5343 159 57.71 157.176 57.71 154.928V106.332C57.71 104.084 59.5343 102.26 61.7822 102.26H116.079C118.327 102.26 120.151 104.084 120.151 106.332Z" fill="#E5AC39"/>
<path d="M120.151 106.332V154.928C120.151 157.176 118.327 159 116.079 159H88.9307V102.26H116.079C118.327 102.26 120.151 104.084 120.151 106.332Z" fill="#D19211"/>
<path d="M101.094 102.26V122.078C101.094 124.326 99.2694 126.15 97.0215 126.15H80.7324C78.4845 126.15 76.6602 124.326 76.6602 122.078V102.26H101.094Z" fill="#9B7C5D"/>
<path d="M101.093 102.26V122.078C101.093 124.326 99.2688 126.15 97.0209 126.15H88.9307V102.26H101.093Z" fill="#7A6047"/>
</svg>
