<svg width="192" height="192" viewBox="0 0 192 192" fill="none" xmlns="http://www.w3.org/2000/svg">
<rect width="192" height="192" rx="48" fill="#FFF4F4"/>
<path d="M35.7266 50.1169H43.4745V119.462H35.7266V50.1169Z" fill="#9F0749"/>
<path d="M117.261 50.1169H125.009V119.462H117.261V50.1169Z" fill="#9F0749"/>
<path fill-rule="evenodd" clip-rule="evenodd" d="M35.7578 50.1045L80.3673 32L124.977 50.1045V54.5019H80.3673H35.7578V50.1045Z" fill="#C61260"/>
<path d="M34.4619 50.1045H126.274C127.08 50.1045 127.735 50.7595 127.735 51.5661V66.576C127.735 67.3829 127.08 68.0379 126.274 68.0379H34.4619C33.655 68.0379 33 67.3829 33 66.576V51.5664C33 50.7595 33.655 50.1045 34.4619 50.1045Z" fill="#740032"/>
<path fill-rule="evenodd" clip-rule="evenodd" d="M126.273 50.1045H36.4795V63.5925C36.4795 64.3966 37.1375 65.0546 37.9411 65.0546H127.735V51.5666C127.735 50.7625 127.077 50.1045 126.273 50.1045Z" fill="#A4074B"/>
<path d="M67.334 56.7319H93.4006V61.4102H67.334V56.7319Z" fill="#F3F3FF"/>
<path fill-rule="evenodd" clip-rule="evenodd" d="M67.3342 56.7319H65.9502V62.7943H93.4008V61.4102H67.3342V56.7319Z" fill="#63002B"/>
<path fill-rule="evenodd" clip-rule="evenodd" d="M108.188 103.971H130.806L127.211 100.375C126.717 99.8815 126.116 99.6328 125.418 99.6328H108.188V103.971Z" fill="#E37500"/>
<path d="M103.527 82.8774H108.836V142.795H103.527V82.8774Z" fill="#C45B00"/>
<path fill-rule="evenodd" clip-rule="evenodd" d="M108.836 147.937H46.4621C43.5225 147.937 41.125 145.539 41.125 142.6V133.567H108.836V147.937Z" fill="#E37500"/>
<path fill-rule="evenodd" clip-rule="evenodd" d="M146.995 147.937H108.836V103.971H131.905C133.591 103.971 135.042 104.609 136.183 105.852L145.467 115.969C146.489 117.083 146.995 118.383 146.995 119.894V147.937V147.937Z" fill="#F9AC00"/>
<path fill-rule="evenodd" clip-rule="evenodd" d="M143.161 147.937H108.836V103.971H128.071C129.757 103.971 131.209 104.609 132.349 105.852L141.633 115.969C142.655 117.083 143.161 118.383 143.161 119.894V147.937Z" fill="#FDC72E"/>
<path fill-rule="evenodd" clip-rule="evenodd" d="M120.003 120.793V108.5H138.614L145.467 115.968C146.489 117.082 146.995 118.382 146.995 119.894V120.793H120.003Z" fill="#E9E9FF"/>
<path fill-rule="evenodd" clip-rule="evenodd" d="M120.002 120.793V108.5H134.779L141.633 115.969C142.655 117.082 143.161 118.383 143.161 119.894V120.793H120.002Z" fill="#F3F3FF"/>
<path fill-rule="evenodd" clip-rule="evenodd" d="M146.995 142.795H41.125V147.937H147.386C149.477 147.937 151.182 146.231 151.182 144.141V137.219H146.995V142.795L146.995 142.795Z" fill="#C45B00"/>
<path d="M41.125 138.506H46.5916V142.795H41.125V138.506Z" fill="#323E66"/>
<path d="M141.718 128.678H146.994V134.791H141.718V128.678Z" fill="#323E66"/>
<path d="M128.578 156.877C133.517 155.705 136.57 150.75 135.398 145.812C134.225 140.873 129.271 137.82 124.332 138.992C119.393 140.165 116.34 145.119 117.513 150.058C118.685 154.997 123.639 158.05 128.578 156.877Z" fill="#323E66"/>
<path fill-rule="evenodd" clip-rule="evenodd" d="M126.444 152.453C128.931 152.453 130.96 150.424 130.96 147.937C130.96 145.45 128.931 143.421 126.444 143.421C123.956 143.421 121.928 145.449 121.928 147.937C121.928 150.424 123.957 152.453 126.444 152.453Z" fill="#FDC72E"/>
<path fill-rule="evenodd" clip-rule="evenodd" d="M60.9045 157.127C65.9666 157.127 70.0951 152.999 70.0951 147.937C70.0951 142.875 65.9666 138.746 60.9045 138.746C55.8424 138.746 51.7139 142.875 51.7139 147.937C51.7139 152.999 55.8427 157.127 60.9045 157.127Z" fill="#323E66"/>
<path fill-rule="evenodd" clip-rule="evenodd" d="M60.9046 152.453C63.392 152.453 65.4205 150.424 65.4205 147.937C65.4205 145.45 63.392 143.421 60.9046 143.421C58.4172 143.421 56.3887 145.449 56.3887 147.937C56.3887 150.424 58.4174 152.453 60.9046 152.453Z" fill="#FDC72E"/>
<path d="M67.5547 115.58H85.5414V133.567H67.5547V115.58Z" fill="#E6B17C"/>
<path fill-rule="evenodd" clip-rule="evenodd" d="M73.918 115.58H79.1769V121.431L76.5476 120.112L73.918 121.431V115.58Z" fill="#B92062"/>
<path d="M67.5547 97.5933H85.5414V115.58H67.5547V97.5933Z" fill="#BA8047"/>
<path fill-rule="evenodd" clip-rule="evenodd" d="M73.918 97.5933H79.1769V103.444L76.5476 102.125L73.918 103.444V97.5933Z" fill="#B92062"/>
<path d="M85.541 115.58H103.528V133.567H85.541V115.58Z" fill="#DEA368"/>
<path fill-rule="evenodd" clip-rule="evenodd" d="M91.9043 115.58H97.1633V121.431L94.5339 120.112L91.9043 121.431V115.58Z" fill="#B92062"/>
<path d="M85.541 91.9131H103.528V115.58H85.541V91.9131Z" fill="#FDD7AD"/>
<path fill-rule="evenodd" clip-rule="evenodd" d="M91.9043 91.9131H97.1633V97.7642L94.5339 96.4446L91.9043 97.7642V91.9131Z" fill="#B92062"/>
<path d="M49.5674 115.58H67.5541V133.567H49.5674V115.58Z" fill="#FDD7AD"/>
<path fill-rule="evenodd" clip-rule="evenodd" d="M55.9307 115.58H61.1896V121.431L58.5603 120.112L55.9307 121.431V115.58Z" fill="#B92062"/>
<path d="M49.5674 115.58H51.5402V133.567H49.5674V115.58Z" fill="#F2C496"/>
<path d="M67.5547 115.58H69.5275V133.567H67.5547V115.58Z" fill="#DEA368"/>
<path d="M85.541 115.58H87.5139V133.567H85.541V115.58Z" fill="#D19458"/>
<path d="M85.541 91.9131H87.5139V115.58H85.541V91.9131Z" fill="#F2C496"/>
<path d="M67.5547 97.5933H69.5275V115.58H67.5547V97.5933Z" fill="#AB733A"/>
<path fill-rule="evenodd" clip-rule="evenodd" d="M123.925 128.868C124.63 128.868 125.202 129.44 125.202 130.145C125.202 130.85 124.63 131.422 123.925 131.422H118.855C118.15 131.422 117.578 130.85 117.578 130.145C117.578 129.44 118.15 128.868 118.855 128.868H123.925Z" fill="#E37500"/>
</svg>
