<svg width="192" height="192" viewBox="0 0 192 192" fill="none" xmlns="http://www.w3.org/2000/svg">
<rect width="192" height="192" rx="48" fill="#FFF4F4"/>
<path d="M51 74.5C51 72.016 48.984 70 46.5 70H19.5C17.016 70 15 72.016 15 74.5C15 76.984 17.016 79 19.5 79H46.5C48.984 79 51 76.984 51 74.5Z" fill="#FEBF10"/>
<path d="M46.5 88H28.5C26.016 88 24 90.016 24 92.5C24 94.984 26.016 97 28.5 97H46.5C48.984 97 51 94.984 51 92.5C51 90.016 48.984 88 46.5 88Z" fill="#FEBF10"/>
<path d="M46.5 106H37.5C35.016 106 33 108.016 33 110.5C33 112.984 35.016 115 37.5 115H46.5C48.984 115 51 112.984 51 110.5C51 108.016 48.984 106 46.5 106Z" fill="#FEBF10"/>
<path d="M158.361 103.687L144.861 81.187C144.051 79.828 142.584 79 141 79H109.5C107.016 79 105 81.016 105 83.5V128.5C105 130.984 107.016 133 109.5 133H154.5C156.984 133 159 130.984 159 128.5V106C159 105.181 158.784 104.38 158.361 103.687Z" fill="#A4074B"/>
<path d="M123 88H138.453L149.253 106H123V88Z" fill="#FAFAFA"/>
<path d="M109.5 61H46.5C44.016 61 42 63.016 42 65.5V128.5C42 130.984 44.016 133 46.5 133H114V65.5C114 63.016 111.984 61 109.5 61Z" fill="#FEBF10"/>
<path d="M136.5 137.5C141.471 137.5 145.5 133.471 145.5 128.5C145.5 123.529 141.471 119.5 136.5 119.5C131.529 119.5 127.5 123.529 127.5 128.5C127.5 133.471 131.529 137.5 136.5 137.5Z" fill="#FAFAFA"/>
<path d="M136.5 142C129.057 142 123 135.943 123 128.5C123 121.057 129.057 115 136.5 115C143.943 115 150 121.057 150 128.5C150 135.943 143.943 142 136.5 142ZM136.5 124C134.025 124 132 126.025 132 128.5C132 130.975 134.025 133 136.5 133C138.975 133 141 130.975 141 128.5C141 126.025 138.975 124 136.5 124Z" fill="#455A64"/>
<path d="M114 133H46.5C44.016 133 42 130.984 42 128.5V115H114V133Z" fill="#A4074B"/>
<path d="M73.5 137.5C78.4706 137.5 82.5 133.471 82.5 128.5C82.5 123.529 78.4706 119.5 73.5 119.5C68.5294 119.5 64.5 123.529 64.5 128.5C64.5 133.471 68.5294 137.5 73.5 137.5Z" fill="#FAFAFA"/>
<path d="M73.5 142C66.057 142 60 135.943 60 128.5C60 121.057 66.057 115 73.5 115C80.943 115 87 121.057 87 128.5C87 135.943 80.943 142 73.5 142ZM73.5 124C71.016 124 69 126.025 69 128.5C69 130.975 71.016 133 73.5 133C75.984 133 78 130.975 78 128.5C78 126.025 75.984 124 73.5 124Z" fill="#455A64"/>
</svg>
