<svg width="192" height="192" viewBox="0 0 192 192" fill="none" xmlns="http://www.w3.org/2000/svg">
<rect width="192" height="192" rx="48" fill="#FFF4F4"/>
<path fill-rule="evenodd" clip-rule="evenodd" d="M48.8742 75.1252L45 70.1785L55.8186 54H122.07L132.912 70.1785L129.014 75.1252H48.8742Z" fill="#FB9E20"/>
<path fill-rule="evenodd" clip-rule="evenodd" d="M45 70.1782H132.937V135.577H45V70.1782Z" fill="#FEBF10"/>
<path fill-rule="evenodd" clip-rule="evenodd" d="M80.257 89.9155H97.6541C100.335 89.9155 102.527 92.1085 102.527 94.7889C102.527 97.4687 100.335 99.6617 97.6541 99.6617H80.257C77.5768 99.6617 75.4082 97.4689 75.4082 94.7889C75.4082 92.1085 77.5768 89.9155 80.257 89.9155Z" fill="#FB9E20"/>
<path fill-rule="evenodd" clip-rule="evenodd" d="M85.1791 75.1252H92.7326L95.4372 70.1785L93.8294 54H84.0585L82.4502 70.1785L85.1791 75.1252Z" fill="#A4074B"/>
<path fill-rule="evenodd" clip-rule="evenodd" d="M82.4746 135.601H95.4618V123.296L93.8295 124.588L92.2211 125.879L90.5884 124.588L88.9561 123.296L87.3478 124.588L85.7157 125.879L84.0828 124.588L82.4746 123.296V135.601Z" fill="#DC146B"/>
<path fill-rule="evenodd" clip-rule="evenodd" d="M82.4746 70.1782H95.4618V82.459L92.2211 79.8764L88.9561 82.459L85.7157 79.8764L82.4746 82.459V70.1782Z" fill="#DC146B"/>
<path fill-rule="evenodd" clip-rule="evenodd" d="M117.489 152C132.109 152 144.024 140.085 144.024 125.466C144.024 110.87 132.109 98.9556 117.489 98.9556C102.894 98.9556 90.9785 110.87 90.9785 125.466C90.9785 140.085 102.894 152 117.489 152Z" fill="#00AB84"/>
<path fill-rule="evenodd" clip-rule="evenodd" d="M101.675 128.852C100.286 127.536 100.213 125.344 101.504 123.93C102.82 122.541 105.013 122.468 106.426 123.784L112.591 129.535L128.502 114.111C129.866 112.771 132.083 112.82 133.423 114.184C134.764 115.573 134.739 117.766 133.35 119.106L115.076 136.845H115.051C113.736 138.136 111.616 138.16 110.276 136.893L101.675 128.852Z" fill="white"/>
</svg>
