<svg width="192" height="192" viewBox="0 0 192 192" fill="none" xmlns="http://www.w3.org/2000/svg">
<rect width="192" height="192" rx="48" fill="#FFF4F4"/>
<path d="M128.25 54H54.75C46.0515 54 39 61.0515 39 69.75V122.25C39 130.949 46.0515 138 54.75 138H128.25C136.949 138 144 130.949 144 122.25V69.75C144 61.0515 136.949 54 128.25 54Z" fill="#FCBF49"/>
<path d="M39 70.8398H144V84.7078H39V70.8398Z" fill="#B92062"/>
<path d="M91.5 159C108.897 159 123 144.897 123 127.5C123 110.103 108.897 96 91.5 96C74.103 96 60 110.103 60 127.5C60 144.897 74.103 159 91.5 159Z" fill="#00AB84"/>
<path d="M88.8753 138C87.8652 138 86.8603 137.616 86.0912 136.847L78.2162 128.972C76.6779 127.434 76.6779 124.942 78.2162 123.404C79.7544 121.866 82.2461 121.866 83.7838 123.404L88.8747 128.495L99.2157 118.154C100.754 116.616 103.246 116.616 104.783 118.154C106.321 119.692 106.322 122.184 104.783 123.722L91.6583 136.847C90.8892 137.616 89.8854 138 88.8753 138Z" fill="#EDEBEA"/>
</svg>
