<svg width="192" height="192" viewBox="0 0 192 192" fill="none" xmlns="http://www.w3.org/2000/svg">
<rect width="192" height="192" rx="48" fill="#FFF4F4"/>
<path opacity="0.08" d="M121.241 81.3122C120.825 80.665 120.085 80.272 119.299 80.272H99.6726L93.5466 127.939L93.3617 129.373C92.2983 137.648 98.7711 145 107.116 145H122.674V111.734C122.674 110.463 123.714 109.423 124.986 109.423H135.319C137.145 109.423 138.255 107.388 137.261 105.839L121.241 81.3122Z" fill="black"/>
<path d="M113.126 94.1423C115.68 94.1423 117.75 92.0724 117.75 89.5189C117.75 86.9655 115.68 84.8955 113.126 84.8955C110.573 84.8955 108.503 86.9655 108.503 89.5189C108.503 92.0724 110.573 94.1423 113.126 94.1423Z" fill="white"/>
<path d="M156.351 69.3601H98.3596L91.002 126.656H163.709L156.351 69.3601Z" fill="#C61260"/>
<path d="M163.708 126.655H91.0012L90.8023 128.196C89.6589 137.12 96.594 145 105.592 145H149.117C158.115 145 165.05 137.095 163.907 128.196L163.708 126.655Z" fill="#A4074B"/>
<path d="M142.654 90.3144C145.4 90.3144 147.625 88.0886 147.625 85.343C147.625 82.5974 145.4 80.3716 142.654 80.3716C139.908 80.3716 137.683 82.5974 137.683 85.343C137.683 88.0886 139.908 90.3144 142.654 90.3144Z" fill="white"/>
<path d="M142.655 82.2358C141.636 82.2358 140.791 81.3907 140.791 80.3716V62.1762C140.791 54.7688 134.751 48.7286 127.343 48.7286C119.936 48.7286 113.896 54.7688 113.896 62.1762V80.3716C113.896 81.3907 113.05 82.2358 112.031 82.2358C111.012 82.2358 110.167 81.3907 110.167 80.3716V62.1762C110.167 52.7057 117.873 45 127.343 45C136.814 45 144.519 52.7057 144.519 62.1762V80.3716C144.519 81.3907 143.699 82.2358 142.655 82.2358Z" fill="#2B2A3A"/>
<path d="M131.042 104.799H73.9429L60.9512 84.8955H118.05L131.042 104.799Z" fill="#FFC858"/>
<path d="M73.9429 104.799L60.9512 84.8955V145H118.05V104.799H73.9429Z" fill="#D19211"/>
<path d="M18 104.799H47.9828L60.9515 84.8955H30.9918L18 104.799Z" fill="#FFC858"/>
<path d="M47.9822 104.799H30.9912V145H60.9509V84.8955L47.9822 104.799Z" fill="#E5AC39"/>
</svg>
